# xmcd
# Track frame offsets:
# 150
# 27662
# 41065
# 57275
# 72285
#
# Disc length: 1203 seconds
# Revision: 0
# Processed by: cddbd v1.5PL3 Copyright (c) Steve Scherf et al.
# Submitted via: VisiTrax 2.9.5.181 - For more info visit www.synapsa.com
#
DISCID=4504b105
DTITLE=Various Artist - ARMOUR*  Taste of Country
DYEAR=1900
DGENRE=
TTITLE0=Patty Loveless - You'll Never Leave Harlan Alive
TTITLE1=Tammy Cochran - I'm Getting There
TTITLE2=Brad Martin - Before I Knew Better
TTITLE3=Pam Tillis - So Wrong
TTITLE4=Break My Heart Again - Break My Heart Again
EXTD=
EXTT0=
EXTT1=
EXTT2=
EXTT3=
EXTT4=
PLAYORDER=
